<svg xmlns="http://www.w3.org/2000/svg" viewBox="0 0 32 32" id="email"><g><path fill="#8c9eff" d="m29.52 10.15-13-8a1 1 0 0 0-1 0l-13 8A1 1 0 0 0 2 11v18a1 1 0 0 0 1 1h26a1 1 0 0 0 1-1V11a1 1 0 0 0-.48-.85Z"></path><path fill="#5f7cf9" d="m29.52 10.15-13-8A1 1 0 0 0 16 2v28h13a1 1 0 0 0 1-1V11a1 1 0 0 0-.48-.85Z"></path><path fill="#5f7cf9" d="m29.52 10.15-13-8a1 1 0 0 0-1 0l-13 8a1 1 0 0 0 0 1.7l13 8a1 1 0 0 0 1 0l13-8a1 1 0 0 0 0-1.7Z"></path><path fill="#4062ed" d="m29.52 10.15-13-8A1 1 0 0 0 16 2v18a1 1 0 0 0 .52-.15l13-8a1 1 0 0 0 0-1.7Z"></path></g></svg>